<svg xmlns="http://www.w3.org/2000/svg" viewBox="0 0 1280 360" width="1280" height="360" role="img" aria-label="grove">
  <rect width="1280" height="360" fill="#F6F3EA"/>
  <rect x="26" y="26" width="1228" height="308" rx="10" fill="none" stroke="#6E7669" stroke-opacity="0.45" stroke-width="2"/>
  <rect x="68" y="14" width="126" height="24" fill="#F6F3EA"/>
  <path d="m 80.884,27.665 v -1.343 q 0,-1.037 0.68,-1.666 0.68,-0.646 1.785,-0.646 0.697,0 1.156,0.238 0.459,0.238 0.748,0.578 0.306,0.34 0.544,0.697 0.238,0.34 0.476,0.578 0.238,0.221 0.595,0.221 0.646,0 0.646,-0.731 V 24.35 h 1.802 v 1.343 q 0,1.037 -0.68,1.683 -0.663,0.629 -1.785,0.629 -0.697,0 -1.156,-0.238 -0.459,-0.238 -0.765,-0.578 -0.289,-0.34 -0.527,-0.68 -0.238,-0.357 -0.476,-0.578 -0.238,-0.238 -0.595,-0.238 -0.646,0 -0.646,0.731 v 1.241 z" fill="#6E7669"/>
  <path d="m 91.220006,33.87 5.95,-15.98 h 2.21 l -5.95,15.98 z" fill="#6E7669"/>
  <path d="M 101.70901,35.06 V 22.65 h 2.074 v 1.717 q 0.255,-0.884 0.918,-1.377 0.663,-0.51 1.649,-0.51 0.901,0 1.581,0.442 0.697,0.442 1.071,1.258 0.391,0.799 0.391,1.87 v 2.533 q 0,1.615 -0.833,2.601 -0.833,0.986 -2.21,0.986 -0.986,0 -1.666,-0.51 -0.663,-0.51 -0.918,-1.428 l 0.068,2.21 v 2.618 z m 3.842,-4.726 q 0.816,0 1.258,-0.442 0.459,-0.442 0.459,-1.36 v -2.414 q 0,-0.918 -0.459,-1.36 -0.442,-0.442 -1.258,-0.442 -0.816,0 -1.275,0.493 -0.442,0.493 -0.442,1.394 v 2.244 q 0,0.901 0.442,1.394 0.459,0.493 1.275,0.493 z" fill="#6E7669"/>
  <path d="m 112.24902,32 v -9.35 h 2.074 v 1.819 q 0.17,-0.918 0.833,-1.445 0.68,-0.544 1.751,-0.544 1.428,0 2.227,0.918 0.799,0.918 0.799,2.567 v 0.884 h -2.125 v -0.782 q 0,-0.85 -0.442,-1.292 -0.442,-0.459 -1.258,-0.459 -0.85,0 -1.292,0.51 -0.442,0.51 -0.442,1.445 V 32 Z" fill="#6E7669"/>
  <path d="m 125.90003,32.153 q -1.802,0 -2.856,-1.003 -1.054,-1.02 -1.054,-2.737 v -2.176 q 0,-1.734 1.054,-2.737 1.054,-1.003 2.856,-1.003 1.802,0 2.856,1.003 1.054,1.003 1.054,2.737 v 2.176 q 0,1.717 -1.054,2.737 -1.054,1.003 -2.856,1.003 z m 0,-1.853 q 0.85,0 1.309,-0.459 0.476,-0.476 0.476,-1.36 v -2.312 q 0,-0.884 -0.476,-1.343 -0.459,-0.476 -1.309,-0.476 -0.85,0 -1.326,0.476 -0.459,0.459 -0.459,1.343 v 2.312 q 0,0.884 0.459,1.36 0.476,0.459 1.326,0.459 z" fill="#6E7669"/>
  <path d="m 132.37703,35.06 v -1.921 h 2.465 q 0.816,0 1.292,-0.493 0.476,-0.476 0.476,-1.309 v -6.766 h -4.318 V 22.65 h 6.443 v 8.738 q 0,1.7 -1.02,2.686 -1.02,0.986 -2.754,0.986 z m 5.185,-13.974 q -0.646,0 -1.02,-0.323 -0.374,-0.34 -0.374,-0.901 0,-0.561 0.374,-0.884 0.374,-0.34 1.02,-0.34 0.646,0 1.02,0.34 0.374,0.323 0.374,0.884 0,0.561 -0.374,0.901 -0.374,0.323 -1.02,0.323 z" fill="#6E7669"/>
  <path d="m 146.31704,32.17 q -1.19,0 -2.074,-0.459 -0.884,-0.459 -1.377,-1.292 -0.476,-0.85 -0.476,-1.989 v -2.21 q 0,-1.139 0.476,-1.972 0.493,-0.85 1.377,-1.309 0.884,-0.459 2.074,-0.459 1.173,0 2.04,0.459 0.884,0.459 1.36,1.292 0.493,0.816 0.493,1.921 v 1.7 h -5.78 v 0.646 q 0,0.952 0.493,1.445 0.493,0.476 1.394,0.476 0.663,0 1.122,-0.221 0.476,-0.238 0.561,-0.68 h 2.108 q -0.221,1.207 -1.258,1.938 -1.037,0.714 -2.533,0.714 z m -1.887,-6.018 v 0.323 l 3.74,-0.017 v -0.323 q 0,-0.969 -0.476,-1.496 -0.476,-0.527 -1.377,-0.527 -0.935,0 -1.411,0.544 -0.476,0.527 -0.476,1.496 z" fill="#6E7669"/>
  <path d="m 156.65305,32.17 q -1.207,0 -2.108,-0.442 -0.884,-0.459 -1.377,-1.275 -0.493,-0.833 -0.493,-1.955 v -2.346 q 0,-1.122 0.493,-1.938 0.493,-0.833 1.377,-1.275 0.901,-0.459 2.108,-0.459 1.751,0 2.805,0.918 1.071,0.901 1.122,2.465 h -2.091 q -0.051,-0.731 -0.561,-1.122 -0.493,-0.408 -1.275,-0.408 -0.867,0 -1.36,0.476 -0.493,0.459 -0.493,1.326 v 2.363 q 0,0.867 0.493,1.343 0.493,0.476 1.36,0.476 0.799,0 1.292,-0.391 0.493,-0.408 0.544,-1.139 h 2.091 q -0.051,1.564 -1.122,2.482 -1.054,0.901 -2.805,0.901 z" fill="#6E7669"/>
  <path d="m 167.63505,32 q -1.309,0 -2.091,-0.748 -0.765,-0.765 -0.765,-2.057 v -4.624 h -2.584 V 22.65 h 2.584 v -2.635 h 2.142 v 2.635 h 3.723 v 1.921 h -3.723 v 4.573 q 0,0.408 0.221,0.68 0.238,0.255 0.646,0.255 h 2.771 V 32 Z" fill="#6E7669"/>
  <path d="m 176.50906,32.153 q -1.666,0 -2.635,-0.748 -0.969,-0.765 -0.969,-2.057 h 2.091 q 0,0.544 0.391,0.833 0.408,0.289 1.122,0.289 h 0.748 q 0.765,0 1.173,-0.289 0.425,-0.289 0.425,-0.833 0,-0.51 -0.289,-0.748 -0.289,-0.255 -0.884,-0.34 l -2.329,-0.306 q -1.122,-0.153 -1.734,-0.867 -0.595,-0.714 -0.595,-1.853 0,-1.326 0.884,-2.023 0.884,-0.714 2.55,-0.714 h 0.782 q 1.564,0 2.516,0.714 0.952,0.714 0.986,1.904 h -2.108 q -0.017,-0.442 -0.391,-0.697 -0.374,-0.272 -1.003,-0.272 h -0.782 q -0.68,0 -1.037,0.289 -0.357,0.272 -0.357,0.748 0,0.425 0.255,0.629 0.272,0.204 0.782,0.255 l 2.193,0.306 q 1.292,0.153 1.938,0.918 0.663,0.748 0.663,2.023 0,1.36 -0.935,2.108 -0.918,0.731 -2.703,0.731 z" fill="#6E7669"/>
  <g transform="translate(371.279,77.324) scale(0.97059)">
    <rect x="17.00" y="11.00" width="46.00" height="10.00" rx="5.00" fill="#6B5842"/>
    <rect x="17.00" y="11.00" width="10.00" height="127.00" rx="5.00" fill="#6B5842"/>
    <rect x="17.00" y="52.00" width="40.00" height="10.00" rx="5.00" fill="#6B5842"/>
    <rect x="17.00" y="90.00" width="40.00" height="10.00" rx="5.00" fill="#6B5842"/>
    <rect x="17.00" y="128.00" width="40.00" height="10.00" rx="5.00" fill="#6B5842"/>
    <rect x="53.00" y="43.00" width="64.00" height="28.00" rx="14.00" fill="#3F7D35"/>
    <circle cx="143.0" cy="57.00" r="9.5" fill="none" stroke="#3F7D35" stroke-width="9.0"/>
    <rect x="53.00" y="81.00" width="44.00" height="28.00" rx="14.00" fill="#3F7D35"/>
    <circle cx="143.0" cy="95.00" r="14.0" fill="#B07908"/>
    <rect x="53.00" y="119.00" width="54.00" height="28.00" rx="14.00" fill="#3F7D35"/>
    <circle cx="143.0" cy="133.00" r="9.5" fill="none" stroke="#3F7D35" stroke-width="9.0"/>
  </g>
  <path d="m 579.18098,202.69999 v -13.44 h 17.36 q 4.704,0 7.168,-2.352 2.576,-2.352 2.576,-6.496 v -2.352 l 0.112,-9.184 q -2.24,4.928 -6.384,7.616 -4.144,2.688 -9.856,2.688 -9.296,0 -14.896,-6.496 -5.6,-6.496 -5.6,-17.584 v -11.2 q 0,-10.976 5.6,-17.472 5.6,-6.608 14.896,-6.608 5.824,0 9.968,2.8 4.144,2.688 6.384,7.616 v -9.296 h 16.24 v 60.032 q 0,10.08 -6.944,15.904 -6.832,5.824 -18.704,5.824 z m 17.024,-38.08 q 4.592,0 7.168,-2.576 2.576,-2.688 2.576,-7.504 v -10.08 q 0,-4.816 -2.576,-7.392 -2.576,-2.688 -7.168,-2.688 -4.704,0 -7.28,2.688 -2.464,2.576 -2.464,7.392 v 10.08 q 0,4.816 2.464,7.504 2.576,2.576 7.28,2.576 z" fill="#1B2119"/>
  <path d="m 639.77302,182.53999 v -61.6 h 16.24 v 11.648 q 1.344,-5.936 5.824,-9.296 4.592,-3.472 11.424,-3.472 9.296,0 14.56,6.272 5.264,6.272 5.264,17.248 v 6.16 h -16.8 v -5.04 q 0,-4.816 -2.576,-7.392 -2.576,-2.688 -7.28,-2.688 -4.704,0 -7.28,3.024 -2.576,2.912 -2.576,8.4 v 36.736 z" fill="#1B2119"/>
  <path d="m 730.94106,183.65999 q -8.176,0 -14.224,-3.024 -6.048,-3.136 -9.408,-8.624 -3.248,-5.6 -3.248,-12.992 v -14.56 q 0,-7.392 3.248,-12.88 3.36,-5.6 9.408,-8.624 6.048,-3.136 14.224,-3.136 8.288,0 14.224,3.136 6.048,3.024 9.296,8.624 3.36,5.488 3.36,12.88 v 14.56 q 0,7.392 -3.36,12.992 -3.248,5.488 -9.296,8.624 -5.936,3.024 -14.224,3.024 z m 0,-14.56 q 4.928,0 7.504,-2.576 2.576,-2.688 2.576,-7.504 v -14.56 q 0,-4.928 -2.576,-7.504 -2.576,-2.576 -7.504,-2.576 -4.816,0 -7.504,2.576 -2.576,2.576 -2.576,7.504 v 14.56 q 0,4.816 2.576,7.504 2.688,2.576 7.504,2.576 z" fill="#1B2119"/>
  <path d="m 787.72511,182.53999 -20.496,-61.6 h 17.36 l 10.752,34.608 q 1.008,3.136 1.792,6.496 0.896,3.36 1.12,6.272 0.224,-2.912 1.008,-6.272 0.784,-3.36 1.68,-6.384 l 10.528,-34.72 h 17.584 l -20.272,61.6 z" fill="#1B2119"/>
  <path d="m 865.45315,183.65999 q -8.176,0 -14.336,-3.024 -6.048,-3.136 -9.408,-8.624 -3.248,-5.6 -3.248,-12.992 v -14.56 q 0,-7.392 3.248,-12.88 3.36,-5.6 9.408,-8.624 6.16,-3.136 14.336,-3.136 8.176,0 14.112,3.136 6.048,3.024 9.296,8.624 3.36,5.488 3.36,12.88 v 11.424 h -37.744 v 3.136 q 0,5.824 2.688,8.512 2.8,2.688 8.288,2.688 3.584,0 6.272,-1.12 2.688,-1.12 3.136,-3.36 h 16.464 q -1.792,8.064 -8.848,12.992 -7.056,4.928 -17.024,4.928 z m -10.976,-39.2 v 1.456 l 21.728,-0.224 v -1.456 q 0,-5.712 -2.688,-8.848 -2.576,-3.136 -8.064,-3.136 -5.488,0 -8.288,3.248 -2.688,3.248 -2.688,8.96 z" fill="#1B2119"/>
  <path d="m 136.09567,272.24 q -2.592,0 -4.128,-1.344 -1.536,-1.368 -1.536,-3.744 h 2.376 q 0,1.392 0.888,2.184 0.888,0.792 2.4,0.792 1.44,0 2.28,-0.792 0.864,-0.816 0.864,-2.16 0,-1.008 -0.552,-1.752 -0.552,-0.768 -1.56,-1.032 l -2.592,-0.696 q -1.704,-0.48 -2.712,-1.728 -0.984,-1.272 -0.984,-3 0,-1.416 0.624,-2.472 0.648,-1.08 1.8,-1.656 1.152,-0.6 2.664,-0.6 1.536,0 2.688,0.6 1.176,0.576 1.824,1.632 0.648,1.056 0.648,2.448 h -2.352 q 0,-1.152 -0.792,-1.872 -0.768,-0.72 -2.016,-0.72 -1.248,0 -2.016,0.72 -0.744,0.72 -0.744,1.872 0,0.936 0.504,1.584 0.504,0.624 1.416,0.888 l 2.664,0.72 q 1.8,0.48 2.808,1.848 1.008,1.344 1.008,3.216 0,1.536 -0.672,2.688 -0.672,1.128 -1.92,1.752 -1.224,0.624 -2.88,0.624 z" fill="#6E7669"/>
  <path d="m 151.71968,272 q -1.704,0 -2.712,-0.984 -0.984,-0.984 -0.984,-2.616 v -7.44 h -3.768 v -2.16 h 3.768 v -3.72 h 2.376 v 3.72 h 5.352 v 2.16 h -5.352 v 7.416 q 0,0.648 0.36,1.056 0.384,0.408 1.008,0.408 h 3.864 V 272 Z" fill="#6E7669"/>
  <path d="m 163.57569,272.24 q -2.04,0 -3.24,-1.128 -1.176,-1.152 -1.176,-3 0,-1.848 1.224,-2.976 1.248,-1.128 3.264,-1.128 h 3.864 V 263 q 0,-2.424 -2.688,-2.424 -1.2,0 -1.944,0.456 -0.72,0.432 -0.768,1.224 h -2.352 q 0.12,-1.608 1.464,-2.64 1.344,-1.056 3.6,-1.056 2.424,0 3.744,1.152 1.32,1.152 1.32,3.24 V 272 h -2.328 v -2.424 h -0.048 q -0.168,1.224 -1.224,1.944 -1.032,0.72 -2.712,0.72 z m 0.624,-1.992 q 1.512,0 2.4,-0.72 0.912,-0.744 0.912,-2.016 v -1.752 h -3.648 q -1.032,0 -1.68,0.624 -0.624,0.6 -0.624,1.608 0,1.032 0.696,1.656 0.696,0.6 1.944,0.6 z" fill="#6E7669"/>
  <path d="m 180.5197,272 q -1.704,0 -2.712,-0.984 -0.984,-0.984 -0.984,-2.616 v -7.44 h -3.768 v -2.16 h 3.768 v -3.72 h 2.376 v 3.72 h 5.352 v 2.16 h -5.352 v 7.416 q 0,0.648 0.36,1.056 0.384,0.408 1.008,0.408 h 3.864 V 272 Z" fill="#6E7669"/>
  <path d="m 193.57571,272.24 q -2.328,0 -3.72,-1.368 -1.392,-1.368 -1.392,-3.72 V 258.8 h 2.376 v 8.352 q 0,1.392 0.72,2.208 0.744,0.792 2.016,0.792 1.296,0 2.04,-0.792 0.744,-0.816 0.744,-2.208 V 258.8 h 2.376 v 8.352 q 0,2.352 -1.416,3.72 -1.392,1.368 -3.744,1.368 z" fill="#6E7669"/>
  <path d="m 207.47172,272.192 q -2.256,0 -3.504,-1.008 -1.248,-1.008 -1.248,-2.832 h 2.352 q 0,0.864 0.624,1.368 0.648,0.48 1.776,0.48 h 1.056 q 1.176,0 1.8,-0.504 0.648,-0.504 0.648,-1.416 0,-1.608 -1.584,-1.8 l -3.552,-0.504 q -1.416,-0.216 -2.184,-1.152 -0.768,-0.96 -0.768,-2.472 0,-1.776 1.2,-2.76 1.2,-0.984 3.36,-0.984 h 1.056 q 2.016,0 3.264,0.96 1.248,0.96 1.32,2.544 h -2.4 q -0.048,-0.672 -0.624,-1.104 -0.576,-0.456 -1.56,-0.456 h -1.056 q -1.08,0 -1.68,0.48 -0.576,0.48 -0.576,1.296 0,1.32 1.32,1.488 l 3.336,0.48 q 3.432,0.456 3.432,3.984 0,1.872 -1.248,2.904 -1.224,1.008 -3.504,1.008 z" fill="#6E7669"/>
  <path d="m 220.11973,275.84 1.296,-7.344 h 2.808 l -1.704,7.344 z" fill="#6E7669"/>
  <path d="m 250.33575,272.24 q -1.992,0 -3.168,-1.32 -1.176,-1.344 -1.176,-3.624 v -3.792 q 0,-2.28 1.176,-3.6 1.176,-1.344 3.168,-1.344 1.464,0 2.424,0.744 0.984,0.744 1.2,2.04 v 0 l -0.048,-3.072 v -3.792 h 2.376 V 272 h -2.352 v -2.568 0 q -0.216,1.32 -1.176,2.064 -0.96,0.744 -2.424,0.744 z m 0.816,-2.064 q 1.272,0 2.016,-0.792 0.744,-0.792 0.744,-2.232 v -3.504 q 0,-1.44 -0.744,-2.232 -0.744,-0.792 -2.016,-0.792 -1.32,0 -2.064,0.696 -0.72,0.672 -0.72,2.208 v 3.744 q 0,1.536 0.72,2.232 0.744,0.672 2.064,0.672 z" fill="#6E7669"/>
  <path d="m 260.39176,272 v -2.16 h 4.632 v -8.88 h -4.152 v -2.16 h 6.528 v 11.04 h 4.344 V 272 Z m 5.592,-15.528 q -0.816,0 -1.296,-0.408 -0.48,-0.432 -0.48,-1.152 0,-0.744 0.48,-1.176 0.48,-0.432 1.296,-0.432 0.816,0 1.296,0.432 0.48,0.432 0.48,1.176 0,0.72 -0.48,1.152 -0.48,0.408 -1.296,0.408 z" fill="#6E7669"/>
  <path d="m 277.86377,272 v -9.24 h -3.792 v -2.16 h 3.792 v -2.664 q 0,-1.584 1.032,-2.52 1.032,-0.936 2.808,-0.936 h 3.864 v 2.136 h -3.864 q -1.464,0 -1.464,1.344 v 2.64 h 5.328 v 2.16 h -5.328 V 272 Z" fill="#6E7669"/>
  <path d="m 292.26378,272 v -9.24 h -3.792 v -2.16 h 3.792 v -2.664 q 0,-1.584 1.032,-2.52 1.032,-0.936 2.808,-0.936 h 3.864 v 2.136 h -3.864 q -1.464,0 -1.464,1.344 v 2.64 h 5.328 v 2.16 h -5.328 V 272 Z" fill="#6E7669"/>
  <path d="m 308.27178,272.192 q -2.256,0 -3.504,-1.008 -1.248,-1.008 -1.248,-2.832 h 2.352 q 0,0.864 0.624,1.368 0.648,0.48 1.776,0.48 h 1.056 q 1.176,0 1.8,-0.504 0.648,-0.504 0.648,-1.416 0,-1.608 -1.584,-1.8 l -3.552,-0.504 q -1.416,-0.216 -2.184,-1.152 -0.768,-0.96 -0.768,-2.472 0,-1.776 1.2,-2.76 1.2,-0.984 3.36,-0.984 h 1.056 q 2.016,0 3.264,0.96 1.248,0.96 1.32,2.544 h -2.4 q -0.048,-0.672 -0.624,-1.104 -0.576,-0.456 -1.56,-0.456 h -1.056 q -1.08,0 -1.68,0.48 -0.576,0.48 -0.576,1.296 0,1.32 1.32,1.488 l 3.336,0.48 q 3.432,0.456 3.432,3.984 0,1.872 -1.248,2.904 -1.224,1.008 -3.504,1.008 z" fill="#6E7669"/>
  <path d="m 336.3758,272.24 q -2.04,0 -3.24,-1.128 -1.176,-1.152 -1.176,-3 0,-1.848 1.224,-2.976 1.248,-1.128 3.264,-1.128 h 3.864 V 263 q 0,-2.424 -2.688,-2.424 -1.2,0 -1.944,0.456 -0.72,0.432 -0.768,1.224 h -2.352 q 0.12,-1.608 1.464,-2.64 1.344,-1.056 3.6,-1.056 2.424,0 3.744,1.152 1.32,1.152 1.32,3.24 V 272 h -2.328 v -2.424 h -0.048 q -0.168,1.224 -1.224,1.944 -1.032,0.72 -2.712,0.72 z m 0.624,-1.992 q 1.512,0 2.4,-0.72 0.912,-0.744 0.912,-2.016 v -1.752 h -3.648 q -1.032,0 -1.68,0.624 -0.624,0.6 -0.624,1.608 0,1.032 0.696,1.656 0.696,0.6 1.944,0.6 z" fill="#6E7669"/>
  <path d="m 346.91181,272 v -13.2 h 2.352 v 2.52 h 0.024 q 0.168,-1.296 1.08,-2.016 0.936,-0.744 2.448,-0.744 1.968,0 3.144,1.248 1.176,1.248 1.176,3.36 V 272 h -2.376 v -8.448 q 0,-1.44 -0.72,-2.208 -0.72,-0.768 -1.968,-0.768 -1.296,0 -2.04,0.816 -0.744,0.792 -0.744,2.232 V 272 Z" fill="#6E7669"/>
  <path d="m 365.53582,272.24 q -1.992,0 -3.168,-1.32 -1.176,-1.344 -1.176,-3.624 v -3.792 q 0,-2.28 1.176,-3.6 1.176,-1.344 3.168,-1.344 1.464,0 2.424,0.744 0.984,0.744 1.2,2.04 v 0 l -0.048,-3.072 v -3.792 h 2.376 V 272 h -2.352 v -2.568 0 q -0.216,1.32 -1.176,2.064 -0.96,0.744 -2.424,0.744 z m 0.816,-2.064 q 1.272,0 2.016,-0.792 0.744,-0.792 0.744,-2.232 v -3.504 q 0,-1.44 -0.744,-2.232 -0.744,-0.792 -2.016,-0.792 -1.32,0 -2.064,0.696 -0.72,0.672 -0.72,2.208 v 3.744 q 0,1.536 0.72,2.232 0.744,0.672 2.064,0.672 z" fill="#6E7669"/>
  <path d="m 397.16784,272 q -1.8,0 -2.88,-1.056 -1.08,-1.056 -1.08,-2.808 V 256.64 h -4.512 v -2.16 h 6.888 v 13.632 q 0,0.792 0.432,1.272 0.456,0.456 1.224,0.456 h 4.008 V 272 Z" fill="#6E7669"/>
  <path d="m 409.59983,272.192 q -2.424,0 -3.864,-1.392 -1.416,-1.392 -1.416,-3.888 v -3.024 q 0,-2.496 1.416,-3.888 1.44,-1.392 3.864,-1.392 2.424,0 3.84,1.392 1.44,1.392 1.44,3.888 v 3.024 q 0,2.496 -1.44,3.888 -1.416,1.392 -3.84,1.392 z m 0,-2.088 q 1.344,0 2.112,-0.744 0.792,-0.768 0.792,-2.232 v -3.456 q 0,-1.464 -0.792,-2.208 -0.768,-0.768 -2.112,-0.768 -1.344,0 -2.136,0.768 -0.768,0.744 -0.768,2.208 v 3.456 q 0,1.464 0.768,2.232 0.792,0.744 2.136,0.744 z" fill="#6E7669"/>
  <path d="m 420.61586,276.32 v -2.112 h 3.72 q 1.08,0 1.728,-0.624 0.648,-0.6 0.648,-1.656 v -1.104 l 0.048,-2.28 h -0.024 q -0.24,1.224 -1.176,1.896 -0.912,0.672 -2.352,0.672 -2.04,0 -3.216,-1.296 -1.176,-1.32 -1.176,-3.6 v -2.712 q 0,-2.28 1.176,-3.6 1.176,-1.344 3.216,-1.344 1.392,0 2.304,0.672 0.936,0.672 1.2,1.848 h 0.024 v -2.28 h 2.328 v 13.152 q 0,2.016 -1.272,3.192 -1.272,1.176 -3.456,1.176 z m 3.336,-7.2 q 1.272,0 2.016,-0.792 0.744,-0.792 0.744,-2.232 v -2.472 q 0,-1.416 -0.744,-2.208 -0.744,-0.792 -2.016,-0.792 -1.32,0 -2.04,0.768 -0.72,0.744 -0.72,2.04 v 2.88 q 0,1.296 0.72,2.064 0.72,0.744 2.04,0.744 z" fill="#6E7669"/>
  <path d="m 437.87188,272.192 q -2.256,0 -3.504,-1.008 -1.248,-1.008 -1.248,-2.832 h 2.352 q 0,0.864 0.624,1.368 0.648,0.48 1.776,0.48 h 1.056 q 1.176,0 1.8,-0.504 0.648,-0.504 0.648,-1.416 0,-1.608 -1.584,-1.8 l -3.552,-0.504 q -1.416,-0.216 -2.184,-1.152 -0.768,-0.96 -0.768,-2.472 0,-1.776 1.2,-2.76 1.2,-0.984 3.36,-0.984 h 1.056 q 2.016,0 3.264,0.96 1.248,0.96 1.32,2.544 h -2.4 q -0.048,-0.672 -0.624,-1.104 -0.576,-0.456 -1.56,-0.456 h -1.056 q -1.08,0 -1.68,0.48 -0.576,0.48 -0.576,1.296 0,1.32 1.32,1.488 l 3.336,0.48 q 3.432,0.456 3.432,3.984 0,1.872 -1.248,2.904 -1.224,1.008 -3.504,1.008 z" fill="#6E7669"/>
  <path d="m 465.97587,272.24 q -2.04,0 -3.24,-1.128 -1.176,-1.152 -1.176,-3 0,-1.848 1.224,-2.976 1.248,-1.128 3.264,-1.128 h 3.864 V 263 q 0,-2.424 -2.688,-2.424 -1.2,0 -1.944,0.456 -0.72,0.432 -0.768,1.224 h -2.352 q 0.12,-1.608 1.464,-2.64 1.344,-1.056 3.6,-1.056 2.424,0 3.744,1.152 1.32,1.152 1.32,3.24 V 272 h -2.328 v -2.424 h -0.048 q -0.168,1.224 -1.224,1.944 -1.032,0.72 -2.712,0.72 z m 0.624,-1.992 q 1.512,0 2.4,-0.72 0.912,-0.744 0.912,-2.016 v -1.752 h -3.648 q -1.032,0 -1.68,0.624 -0.624,0.6 -0.624,1.608 0,1.032 0.696,1.656 0.696,0.6 1.944,0.6 z" fill="#6E7669"/>
  <path d="m 481.79189,272.24 q -2.424,0 -3.888,-1.344 -1.464,-1.368 -1.464,-3.744 v -3.528 q 0,-2.352 1.464,-3.696 1.464,-1.368 3.888,-1.368 2.328,0 3.744,1.248 1.44,1.224 1.512,3.36 h -2.352 q -0.072,-1.2 -0.864,-1.848 -0.768,-0.672 -2.04,-0.672 -1.368,0 -2.184,0.792 -0.792,0.768 -0.792,2.184 v 3.528 q 0,1.44 0.792,2.208 0.816,0.768 2.184,0.768 1.296,0 2.064,-0.648 0.768,-0.648 0.84,-1.848 h 2.352 q -0.072,2.136 -1.512,3.384 -1.416,1.224 -3.744,1.224 z" fill="#6E7669"/>
  <path d="m 491.39192,272 v -13.2 h 2.352 v 2.544 h 0.024 q 0.192,-1.296 1.104,-2.04 0.936,-0.744 2.472,-0.744 2.04,0 3.168,1.272 1.128,1.248 1.128,3.528 v 1.152 h -2.376 v -1.128 q 0,-2.76 -2.712,-2.76 -1.368,0 -2.088,0.792 -0.696,0.792 -0.696,2.256 V 272 Z" fill="#6E7669"/>
  <path d="m 510.39991,272.192 q -2.424,0 -3.864,-1.392 -1.416,-1.392 -1.416,-3.888 v -3.024 q 0,-2.496 1.416,-3.888 1.44,-1.392 3.864,-1.392 2.424,0 3.84,1.392 1.44,1.392 1.44,3.888 v 3.024 q 0,2.496 -1.44,3.888 -1.416,1.392 -3.84,1.392 z m 0,-2.088 q 1.344,0 2.112,-0.744 0.792,-0.768 0.792,-2.232 v -3.456 q 0,-1.464 -0.792,-2.208 -0.768,-0.768 -2.112,-0.768 -1.344,0 -2.136,0.768 -0.768,0.744 -0.768,2.208 v 3.456 q 0,1.464 0.768,2.232 0.792,0.744 2.136,0.744 z" fill="#6E7669"/>
  <path d="m 524.27191,272.192 q -2.256,0 -3.504,-1.008 -1.248,-1.008 -1.248,-2.832 h 2.352 q 0,0.864 0.624,1.368 0.648,0.48 1.776,0.48 h 1.056 q 1.176,0 1.8,-0.504 0.648,-0.504 0.648,-1.416 0,-1.608 -1.584,-1.8 l -3.552,-0.504 q -1.416,-0.216 -2.184,-1.152 -0.768,-0.96 -0.768,-2.472 0,-1.776 1.2,-2.76 1.2,-0.984 3.36,-0.984 h 1.056 q 2.016,0 3.264,0.96 1.248,0.96 1.32,2.544 h -2.4 q -0.048,-0.672 -0.624,-1.104 -0.576,-0.456 -1.56,-0.456 h -1.056 q -1.08,0 -1.68,0.48 -0.576,0.48 -0.576,1.296 0,1.32 1.32,1.488 l 3.336,0.48 q 3.432,0.456 3.432,3.984 0,1.872 -1.248,2.904 -1.224,1.008 -3.504,1.008 z" fill="#6E7669"/>
  <path d="m 538.67193,272.192 q -2.256,0 -3.504,-1.008 -1.248,-1.008 -1.248,-2.832 h 2.352 q 0,0.864 0.624,1.368 0.648,0.48 1.776,0.48 h 1.056 q 1.176,0 1.8,-0.504 0.648,-0.504 0.648,-1.416 0,-1.608 -1.584,-1.8 l -3.552,-0.504 q -1.416,-0.216 -2.184,-1.152 -0.768,-0.96 -0.768,-2.472 0,-1.776 1.2,-2.76 1.2,-0.984 3.36,-0.984 h 1.056 q 2.016,0 3.264,0.96 1.248,0.96 1.32,2.544 h -2.4 q -0.048,-0.672 -0.624,-1.104 -0.576,-0.456 -1.56,-0.456 h -1.056 q -1.08,0 -1.68,0.48 -0.576,0.48 -0.576,1.296 0,1.32 1.32,1.488 l 3.336,0.48 q 3.432,0.456 3.432,3.984 0,1.872 -1.248,2.904 -1.224,1.008 -3.504,1.008 z" fill="#6E7669"/>
  <path d="m 567.99995,272.24 q -2.376,0 -3.84,-1.416 -1.44,-1.416 -1.44,-3.864 v -3.12 q 0,-2.448 1.44,-3.864 1.464,-1.416 3.84,-1.416 1.584,0 2.76,0.648 1.2,0.624 1.848,1.776 0.672,1.128 0.672,2.64 V 266 h -8.232 v 1.152 q 0,1.44 0.792,2.256 0.792,0.816 2.16,0.816 1.152,0 1.896,-0.432 0.744,-0.432 0.888,-1.2 h 2.376 q -0.24,1.68 -1.656,2.664 -1.416,0.984 -3.504,0.984 z m -2.952,-8.616 v 0.624 h 5.904 v -0.624 q 0,-1.512 -0.768,-2.328 -0.768,-0.816 -2.184,-0.816 -1.416,0 -2.184,0.816 -0.768,0.816 -0.768,2.328 z" fill="#6E7669"/>
  <path d="m 580.86394,272 -4.464,-13.2 h 2.52 l 2.808,8.664 q 0.24,0.768 0.432,1.512 0.192,0.72 0.288,1.152 0.096,-0.432 0.264,-1.152 0.168,-0.744 0.408,-1.512 l 2.784,-8.664 h 2.52 l -4.488,13.2 z" fill="#6E7669"/>
  <path d="m 596.79997,272.24 q -2.376,0 -3.84,-1.416 -1.44,-1.416 -1.44,-3.864 v -3.12 q 0,-2.448 1.44,-3.864 1.464,-1.416 3.84,-1.416 1.584,0 2.76,0.648 1.2,0.624 1.848,1.776 0.672,1.128 0.672,2.64 V 266 h -8.232 v 1.152 q 0,1.44 0.792,2.256 0.792,0.816 2.16,0.816 1.152,0 1.896,-0.432 0.744,-0.432 0.888,-1.2 h 2.376 q -0.24,1.68 -1.656,2.664 -1.416,0.984 -3.504,0.984 z m -2.952,-8.616 v 0.624 h 5.904 v -0.624 q 0,-1.512 -0.768,-2.328 -0.768,-0.816 -2.184,-0.816 -1.416,0 -2.184,0.816 -0.768,0.816 -0.768,2.328 z" fill="#6E7669"/>
  <path d="m 606.59199,272 v -13.2 h 2.352 v 2.544 h 0.024 q 0.192,-1.296 1.104,-2.04 0.936,-0.744 2.472,-0.744 2.04,0 3.168,1.272 1.128,1.248 1.128,3.528 v 1.152 h -2.376 v -1.128 q 0,-2.76 -2.712,-2.76 -1.368,0 -2.088,0.792 -0.696,0.792 -0.696,2.256 V 272 Z" fill="#6E7669"/>
  <path d="m 622.59999,276.32 1.92,-5.112 -4.92,-12.408 h 2.52 l 2.976,7.8 q 0.192,0.504 0.384,1.08 0.192,0.576 0.264,1.008 0.072,-0.432 0.24,-1.008 0.168,-0.576 0.36,-1.08 l 2.76,-7.8 h 2.52 l -6.552,17.52 z" fill="#6E7669"/>
  <path d="m 651.016,276.32 v -2.112 h 3.72 q 1.08,0 1.728,-0.624 0.648,-0.6 0.648,-1.656 v -1.104 l 0.048,-2.28 h -0.024 q -0.24,1.224 -1.176,1.896 -0.912,0.672 -2.352,0.672 -2.04,0 -3.216,-1.296 -1.176,-1.32 -1.176,-3.6 v -2.712 q 0,-2.28 1.176,-3.6 1.176,-1.344 3.216,-1.344 1.392,0 2.304,0.672 0.936,0.672 1.2,1.848 h 0.024 v -2.28 h 2.328 v 13.152 q 0,2.016 -1.272,3.192 -1.272,1.176 -3.456,1.176 z m 3.336,-7.2 q 1.272,0 2.016,-0.792 0.744,-0.792 0.744,-2.232 v -2.472 q 0,-1.416 -0.744,-2.208 -0.744,-0.792 -2.016,-0.792 -1.32,0 -2.04,0.768 -0.72,0.744 -0.72,2.04 v 2.88 q 0,1.296 0.72,2.064 0.72,0.744 2.04,0.744 z" fill="#6E7669"/>
  <path d="m 663.59203,272 v -2.16 h 4.632 v -8.88 h -4.152 v -2.16 h 6.528 v 11.04 h 4.344 V 272 Z m 5.592,-15.528 q -0.816,0 -1.296,-0.408 -0.48,-0.432 -0.48,-1.152 0,-0.744 0.48,-1.176 0.48,-0.432 1.296,-0.432 0.816,0 1.296,0.432 0.48,0.432 0.48,1.176 0,0.72 -0.48,1.152 -0.48,0.408 -1.296,0.408 z" fill="#6E7669"/>
  <path d="m 684.51999,272 q -1.704,0 -2.712,-0.984 -0.984,-0.984 -0.984,-2.616 v -7.44 h -3.768 v -2.16 h 3.768 v -3.72 h 2.376 v 3.72 h 5.352 v 2.16 h -5.352 v 7.416 q 0,0.648 0.36,1.056 0.384,0.408 1.008,0.408 h 3.864 V 272 Z" fill="#6E7669"/>
  <path d="m 707.39204,272 v -13.2 h 2.352 v 2.544 h 0.024 q 0.192,-1.296 1.104,-2.04 0.936,-0.744 2.472,-0.744 2.04,0 3.168,1.272 1.128,1.248 1.128,3.528 v 1.152 h -2.376 v -1.128 q 0,-2.76 -2.712,-2.76 -1.368,0 -2.088,0.792 -0.696,0.792 -0.696,2.256 V 272 Z" fill="#6E7669"/>
  <path d="m 726.40007,272.24 q -2.376,0 -3.84,-1.416 -1.44,-1.416 -1.44,-3.864 v -3.12 q 0,-2.448 1.44,-3.864 1.464,-1.416 3.84,-1.416 1.584,0 2.76,0.648 1.2,0.624 1.848,1.776 0.672,1.128 0.672,2.64 V 266 h -8.232 v 1.152 q 0,1.44 0.792,2.256 0.792,0.816 2.16,0.816 1.152,0 1.896,-0.432 0.744,-0.432 0.888,-1.2 h 2.376 q -0.24,1.68 -1.656,2.664 -1.416,0.984 -3.504,0.984 z m -2.952,-8.616 v 0.624 h 5.904 v -0.624 q 0,-1.512 -0.768,-2.328 -0.768,-0.816 -2.184,-0.816 -1.416,0 -2.184,0.816 -0.768,0.816 -0.768,2.328 z" fill="#6E7669"/>
  <path d="M 735.71209,276.32 V 258.8 h 2.352 v 2.544 h 0.024 q 0.192,-1.296 1.152,-2.04 0.96,-0.744 2.448,-0.744 1.968,0 3.144,1.344 1.176,1.32 1.176,3.6 v 3.768 q 0,2.304 -1.176,3.648 -1.176,1.32 -3.144,1.32 -1.464,0 -2.424,-0.744 -0.96,-0.744 -1.176,-2.04 h -0.048 l 0.048,3.048 v 3.816 z m 5.136,-6.144 q 1.32,0 2.04,-0.672 0.744,-0.696 0.744,-2.232 v -3.744 q 0,-1.536 -0.744,-2.208 -0.72,-0.696 -2.04,-0.696 -1.272,0 -2.016,0.792 -0.744,0.792 -0.744,2.232 v 3.504 q 0,1.44 0.744,2.232 0.744,0.792 2.016,0.792 z" fill="#6E7669"/>
  <path d="m 755.20005,272.192 q -2.424,0 -3.864,-1.392 -1.416,-1.392 -1.416,-3.888 v -3.024 q 0,-2.496 1.416,-3.888 1.44,-1.392 3.864,-1.392 2.424,0 3.84,1.392 1.44,1.392 1.44,3.888 v 3.024 q 0,2.496 -1.44,3.888 -1.416,1.392 -3.84,1.392 z m 0,-2.088 q 1.344,0 2.112,-0.744 0.792,-0.768 0.792,-2.232 v -3.456 q 0,-1.464 -0.792,-2.208 -0.768,-0.768 -2.112,-0.768 -1.344,0 -2.136,0.768 -0.768,0.744 -0.768,2.208 v 3.456 q 0,1.464 0.768,2.232 0.792,0.744 2.136,0.744 z" fill="#6E7669"/>
  <path d="m 769.07208,272.192 q -2.256,0 -3.504,-1.008 -1.248,-1.008 -1.248,-2.832 h 2.352 q 0,0.864 0.624,1.368 0.648,0.48 1.776,0.48 h 1.056 q 1.176,0 1.8,-0.504 0.648,-0.504 0.648,-1.416 0,-1.608 -1.584,-1.8 l -3.552,-0.504 q -1.416,-0.216 -2.184,-1.152 -0.768,-0.96 -0.768,-2.472 0,-1.776 1.2,-2.76 1.2,-0.984 3.36,-0.984 h 1.056 q 2.016,0 3.264,0.96 1.248,0.96 1.32,2.544 h -2.4 q -0.048,-0.672 -0.624,-1.104 -0.576,-0.456 -1.56,-0.456 h -1.056 q -1.08,0 -1.68,0.48 -0.576,0.48 -0.576,1.296 0,1.32 1.32,1.488 l 3.336,0.48 q 3.432,0.456 3.432,3.984 0,1.872 -1.248,2.904 -1.224,1.008 -3.504,1.008 z" fill="#6E7669"/>
  <path d="m 778.7921,272 v -2.16 h 4.632 v -8.88 h -4.152 v -2.16 h 6.528 v 11.04 h 4.344 V 272 Z m 5.592,-15.528 q -0.816,0 -1.296,-0.408 -0.48,-0.432 -0.48,-1.152 0,-0.744 0.48,-1.176 0.48,-0.432 1.296,-0.432 0.816,0 1.296,0.432 0.48,0.432 0.48,1.176 0,0.72 -0.48,1.152 -0.48,0.408 -1.296,0.408 z" fill="#6E7669"/>
  <path d="m 799.72007,272 q -1.704,0 -2.712,-0.984 -0.984,-0.984 -0.984,-2.616 v -7.44 h -3.768 v -2.16 h 3.768 v -3.72 h 2.376 v 3.72 h 5.352 v 2.16 h -5.352 v 7.416 q 0,0.648 0.36,1.056 0.384,0.408 1.008,0.408 h 3.864 V 272 Z" fill="#6E7669"/>
  <path d="m 812.80009,272.192 q -2.424,0 -3.864,-1.392 -1.416,-1.392 -1.416,-3.888 v -3.024 q 0,-2.496 1.416,-3.888 1.44,-1.392 3.864,-1.392 2.424,0 3.84,1.392 1.44,1.392 1.44,3.888 v 3.024 q 0,2.496 -1.44,3.888 -1.416,1.392 -3.84,1.392 z m 0,-2.088 q 1.344,0 2.112,-0.744 0.792,-0.768 0.792,-2.232 v -3.456 q 0,-1.464 -0.792,-2.208 -0.768,-0.768 -2.112,-0.768 -1.344,0 -2.136,0.768 -0.768,0.744 -0.768,2.208 v 3.456 q 0,1.464 0.768,2.232 0.792,0.744 2.136,0.744 z" fill="#6E7669"/>
  <path d="m 822.59211,272 v -13.2 h 2.352 v 2.544 h 0.024 q 0.192,-1.296 1.104,-2.04 0.936,-0.744 2.472,-0.744 2.04,0 3.168,1.272 1.128,1.248 1.128,3.528 v 1.152 h -2.376 v -1.128 q 0,-2.76 -2.712,-2.76 -1.368,0 -2.088,0.792 -0.696,0.792 -0.696,2.256 V 272 Z" fill="#6E7669"/>
  <path d="m 838.60014,276.32 1.92,-5.112 -4.92,-12.408 h 2.52 l 2.976,7.8 q 0.192,0.504 0.384,1.08 0.192,0.576 0.264,1.008 0.072,-0.432 0.24,-1.008 0.168,-0.576 0.36,-1.08 l 2.76,-7.8 h 2.52 l -6.552,17.52 z" fill="#6E7669"/>
  <path d="m 870.37613,272.24 q -2.328,0 -3.72,-1.368 -1.392,-1.368 -1.392,-3.72 V 258.8 h 2.376 v 8.352 q 0,1.392 0.72,2.208 0.744,0.792 2.016,0.792 1.296,0 2.04,-0.792 0.744,-0.816 0.744,-2.208 V 258.8 h 2.376 v 8.352 q 0,2.352 -1.416,3.72 -1.392,1.368 -3.744,1.368 z" fill="#6E7669"/>
  <path d="m 879.71215,272 v -13.2 h 2.352 v 2.52 h 0.024 q 0.168,-1.296 1.08,-2.016 0.936,-0.744 2.448,-0.744 1.968,0 3.144,1.248 1.176,1.248 1.176,3.36 V 272 h -2.376 v -8.448 q 0,-1.44 -0.72,-2.208 -0.72,-0.768 -1.968,-0.768 -1.296,0 -2.04,0.816 -0.744,0.792 -0.744,2.232 V 272 Z" fill="#6E7669"/>
  <path d="m 898.33618,272.24 q -1.992,0 -3.168,-1.32 -1.176,-1.344 -1.176,-3.624 v -3.792 q 0,-2.28 1.176,-3.6 1.176,-1.344 3.168,-1.344 1.464,0 2.424,0.744 0.984,0.744 1.2,2.04 v 0 l -0.048,-3.072 v -3.792 h 2.376 V 272 h -2.352 v -2.568 0 q -0.216,1.32 -1.176,2.064 -0.96,0.744 -2.424,0.744 z m 0.816,-2.064 q 1.272,0 2.016,-0.792 0.744,-0.792 0.744,-2.232 v -3.504 q 0,-1.44 -0.744,-2.232 -0.744,-0.792 -2.016,-0.792 -1.32,0 -2.064,0.696 -0.72,0.672 -0.72,2.208 v 3.744 q 0,1.536 0.72,2.232 0.744,0.672 2.064,0.672 z" fill="#6E7669"/>
  <path d="m 913.60014,272.24 q -2.376,0 -3.84,-1.416 -1.44,-1.416 -1.44,-3.864 v -3.12 q 0,-2.448 1.44,-3.864 1.464,-1.416 3.84,-1.416 1.584,0 2.76,0.648 1.2,0.624 1.848,1.776 0.672,1.128 0.672,2.64 V 266 h -8.232 v 1.152 q 0,1.44 0.792,2.256 0.792,0.816 2.16,0.816 1.152,0 1.896,-0.432 0.744,-0.432 0.888,-1.2 h 2.376 q -0.24,1.68 -1.656,2.664 -1.416,0.984 -3.504,0.984 z m -2.952,-8.616 v 0.624 h 5.904 v -0.624 q 0,-1.512 -0.768,-2.328 -0.768,-0.816 -2.184,-0.816 -1.416,0 -2.184,0.816 -0.768,0.816 -0.768,2.328 z" fill="#6E7669"/>
  <path d="m 923.39216,272 v -13.2 h 2.352 v 2.544 h 0.024 q 0.192,-1.296 1.104,-2.04 0.936,-0.744 2.472,-0.744 2.04,0 3.168,1.272 1.128,1.248 1.128,3.528 v 1.152 h -2.376 v -1.128 q 0,-2.76 -2.712,-2.76 -1.368,0 -2.088,0.792 -0.696,0.792 -0.696,2.256 V 272 Z" fill="#6E7669"/>
  <path d="m 956.80021,272.192 q -2.424,0 -3.864,-1.392 -1.416,-1.392 -1.416,-3.888 v -3.024 q 0,-2.496 1.416,-3.888 1.44,-1.392 3.864,-1.392 2.424,0 3.84,1.392 1.44,1.392 1.44,3.888 v 3.024 q 0,2.496 -1.44,3.888 -1.416,1.392 -3.84,1.392 z m 0,-2.088 q 1.344,0 2.112,-0.744 0.792,-0.768 0.792,-2.232 v -3.456 q 0,-1.464 -0.792,-2.208 -0.768,-0.768 -2.112,-0.768 -1.344,0 -2.136,0.768 -0.768,0.744 -0.768,2.208 v 3.456 q 0,1.464 0.768,2.232 0.792,0.744 2.136,0.744 z" fill="#6E7669"/>
  <path d="m 966.11224,272 v -13.2 h 2.352 v 2.52 h 0.024 q 0.168,-1.296 1.08,-2.016 0.936,-0.744 2.448,-0.744 1.968,0 3.144,1.248 1.176,1.248 1.176,3.36 V 272 h -2.376 v -8.448 q 0,-1.44 -0.72,-2.208 -0.72,-0.768 -1.968,-0.768 -1.296,0 -2.04,0.816 -0.744,0.792 -0.744,2.232 V 272 Z" fill="#6E7669"/>
  <path d="m 985.6002,272.24 q -2.376,0 -3.84,-1.416 -1.44,-1.416 -1.44,-3.864 v -3.12 q 0,-2.448 1.44,-3.864 1.464,-1.416 3.84,-1.416 1.584,0 2.76,0.648 1.2,0.624 1.848,1.776 0.672,1.128 0.672,2.64 V 266 h -8.232 v 1.152 q 0,1.44 0.792,2.256 0.792,0.816 2.16,0.816 1.152,0 1.896,-0.432 0.744,-0.432 0.888,-1.2 h 2.376 q -0.24,1.68 -1.656,2.664 -1.416,0.984 -3.504,0.984 z m -2.952,-8.616 v 0.624 h 5.904 v -0.624 q 0,-1.512 -0.768,-2.328 -0.768,-0.816 -2.184,-0.816 -1.416,0 -2.184,0.816 -0.768,0.816 -0.768,2.328 z" fill="#6E7669"/>
  <path d="m 1013.5362,272.24 q -1.992,0 -3.168,-1.32 -1.176,-1.344 -1.176,-3.624 v -3.792 q 0,-2.28 1.176,-3.6 1.176,-1.344 3.168,-1.344 1.464,0 2.424,0.744 0.984,0.744 1.2,2.04 v 0 l -0.048,-3.072 v -3.792 h 2.376 V 272 h -2.352 v -2.568 0 q -0.216,1.32 -1.176,2.064 -0.96,0.744 -2.424,0.744 z m 0.816,-2.064 q 1.272,0 2.016,-0.792 0.744,-0.792 0.744,-2.232 v -3.504 q 0,-1.44 -0.744,-2.232 -0.744,-0.792 -2.016,-0.792 -1.32,0 -2.064,0.696 -0.72,0.672 -0.72,2.208 v 3.744 q 0,1.536 0.72,2.232 0.744,0.672 2.064,0.672 z" fill="#6E7669"/>
  <path d="m 1023.5922,272 v -2.16 h 4.632 v -8.88 h -4.152 v -2.16 h 6.528 v 11.04 h 4.344 V 272 Z m 5.592,-15.528 q -0.816,0 -1.296,-0.408 -0.48,-0.432 -0.48,-1.152 0,-0.744 0.48,-1.176 0.48,-0.432 1.296,-0.432 0.816,0 1.296,0.432 0.48,0.432 0.48,1.176 0,0.72 -0.48,1.152 -0.48,0.408 -1.296,0.408 z" fill="#6E7669"/>
  <path d="m 1038.5922,272 v -13.2 h 2.352 v 2.544 h 0.024 q 0.192,-1.296 1.104,-2.04 0.936,-0.744 2.472,-0.744 2.04,0 3.168,1.272 1.128,1.248 1.128,3.528 v 1.152 h -2.376 v -1.128 q 0,-2.76 -2.712,-2.76 -1.368,0 -2.088,0.792 -0.696,0.792 -0.696,2.256 V 272 Z" fill="#6E7669"/>
  <path d="m 1057.6003,272.24 q -2.376,0 -3.84,-1.416 -1.44,-1.416 -1.44,-3.864 v -3.12 q 0,-2.448 1.44,-3.864 1.464,-1.416 3.84,-1.416 1.584,0 2.76,0.648 1.2,0.624 1.848,1.776 0.672,1.128 0.672,2.64 V 266 h -8.232 v 1.152 q 0,1.44 0.792,2.256 0.792,0.816 2.16,0.816 1.152,0 1.896,-0.432 0.744,-0.432 0.888,-1.2 h 2.376 q -0.24,1.68 -1.656,2.664 -1.416,0.984 -3.504,0.984 z m -2.952,-8.616 v 0.624 h 5.904 v -0.624 q 0,-1.512 -0.768,-2.328 -0.768,-0.816 -2.184,-0.816 -1.416,0 -2.184,0.816 -0.768,0.816 -0.768,2.328 z" fill="#6E7669"/>
  <path d="m 1072.1923,272.24 q -2.424,0 -3.888,-1.344 -1.464,-1.368 -1.464,-3.744 v -3.528 q 0,-2.352 1.464,-3.696 1.464,-1.368 3.888,-1.368 2.328,0 3.744,1.248 1.44,1.224 1.512,3.36 h -2.352 q -0.072,-1.2 -0.864,-1.848 -0.768,-0.672 -2.04,-0.672 -1.368,0 -2.184,0.792 -0.792,0.768 -0.792,2.184 v 3.528 q 0,1.44 0.792,2.208 0.816,0.768 2.184,0.768 1.296,0 2.064,-0.648 0.768,-0.648 0.84,-1.848 h 2.352 q -0.072,2.136 -1.512,3.384 -1.416,1.224 -3.744,1.224 z" fill="#6E7669"/>
  <path d="m 1087.7203,272 q -1.704,0 -2.712,-0.984 -0.984,-0.984 -0.984,-2.616 v -7.44 h -3.768 v -2.16 h 3.768 v -3.72 h 2.376 v 3.72 h 5.352 v 2.16 h -5.352 v 7.416 q 0,0.648 0.36,1.056 0.384,0.408 1.008,0.408 h 3.864 V 272 Z" fill="#6E7669"/>
  <path d="m 1100.8003,272.192 q -2.424,0 -3.864,-1.392 -1.416,-1.392 -1.416,-3.888 v -3.024 q 0,-2.496 1.416,-3.888 1.44,-1.392 3.864,-1.392 2.424,0 3.84,1.392 1.44,1.392 1.44,3.888 v 3.024 q 0,2.496 -1.44,3.888 -1.416,1.392 -3.84,1.392 z m 0,-2.088 q 1.344,0 2.112,-0.744 0.792,-0.768 0.792,-2.232 v -3.456 q 0,-1.464 -0.792,-2.208 -0.768,-0.768 -2.112,-0.768 -1.344,0 -2.136,0.768 -0.768,0.744 -0.768,2.208 v 3.456 q 0,1.464 0.768,2.232 0.792,0.744 2.136,0.744 z" fill="#6E7669"/>
  <path d="m 1110.5923,272 v -13.2 h 2.352 v 2.544 h 0.024 q 0.192,-1.296 1.104,-2.04 0.936,-0.744 2.472,-0.744 2.04,0 3.168,1.272 1.128,1.248 1.128,3.528 v 1.152 h -2.376 v -1.128 q 0,-2.76 -2.712,-2.76 -1.368,0 -2.088,0.792 -0.696,0.792 -0.696,2.256 V 272 Z" fill="#6E7669"/>
  <path d="m 1126.6003,276.32 1.92,-5.112 -4.92,-12.408 h 2.52 l 2.976,7.8 q 0.192,0.504 0.384,1.08 0.192,0.576 0.264,1.008 0.072,-0.432 0.24,-1.008 0.168,-0.576 0.36,-1.08 l 2.76,-7.8 h 2.52 l -6.552,17.52 z" fill="#6E7669"/>
  <path d="m 1144.0003,272.24 q -0.912,0 -1.488,-0.552 -0.552,-0.552 -0.552,-1.416 0,-0.912 0.552,-1.488 0.576,-0.576 1.488,-0.576 0.912,0 1.464,0.576 0.576,0.576 0.576,1.488 0,0.864 -0.576,1.416 -0.552,0.552 -1.464,0.552 z" fill="#6E7669"/>
</svg>
